<svg xmlns="http://www.w3.org/2000/svg" xmlns:xlink="http://www.w3.org/1999/xlink" width="305" viewBox="0 0 228.75 60" height="80" preserveAspectRatio="xMidYMid meet"><defs><clipPath id="5823cbda62"><path d="M 1 0.511719 L 61 0.511719 L 61 59.699219 L 1 59.699219 Z M 1 0.511719 " clip-rule="nonzero"></path></clipPath></defs><g clip-path="url(#5823cbda62)"><path fill="#ffffff" d="M 60.996094 30.109375 C 60.996094 31.078125 60.945312 32.042969 60.851562 33.007812 C 60.757812 33.972656 60.617188 34.929688 60.425781 35.882812 C 60.238281 36.832031 60.003906 37.773438 59.722656 38.699219 C 59.441406 39.625 59.117188 40.539062 58.746094 41.433594 C 58.378906 42.328125 57.964844 43.203125 57.507812 44.058594 C 57.054688 44.914062 56.558594 45.746094 56.019531 46.550781 C 55.484375 47.355469 54.910156 48.132812 54.296875 48.882812 C 53.683594 49.632812 53.035156 50.351562 52.351562 51.035156 C 51.667969 51.722656 50.953125 52.371094 50.203125 52.984375 C 49.457031 53.601562 48.679688 54.175781 47.878906 54.714844 C 47.074219 55.253906 46.246094 55.753906 45.394531 56.210938 C 44.542969 56.667969 43.667969 57.078125 42.777344 57.449219 C 41.882812 57.820312 40.972656 58.148438 40.046875 58.429688 C 39.125 58.710938 38.1875 58.945312 37.238281 59.136719 C 36.289062 59.324219 35.335938 59.464844 34.375 59.5625 C 33.414062 59.65625 32.449219 59.703125 31.480469 59.703125 C 30.515625 59.703125 29.550781 59.65625 28.589844 59.5625 C 27.625 59.464844 26.671875 59.324219 25.722656 59.136719 C 24.777344 58.945312 23.839844 58.710938 22.914062 58.429688 C 21.988281 58.148438 21.082031 57.820312 20.1875 57.449219 C 19.292969 57.078125 18.421875 56.667969 17.570312 56.210938 C 16.714844 55.753906 15.886719 55.253906 15.085938 54.714844 C 14.28125 54.175781 13.503906 53.601562 12.757812 52.984375 C 12.011719 52.371094 11.296875 51.722656 10.613281 51.035156 C 9.929688 50.351562 9.28125 49.632812 8.667969 48.882812 C 8.054688 48.132812 7.480469 47.355469 6.941406 46.550781 C 6.40625 45.746094 5.910156 44.914062 5.453125 44.058594 C 4.996094 43.203125 4.585938 42.328125 4.214844 41.433594 C 3.84375 40.539062 3.519531 39.625 3.238281 38.699219 C 2.957031 37.773438 2.722656 36.832031 2.535156 35.882812 C 2.347656 34.929688 2.203125 33.972656 2.109375 33.007812 C 2.015625 32.042969 1.96875 31.078125 1.96875 30.109375 C 1.96875 29.140625 2.015625 28.171875 2.109375 27.207031 C 2.203125 26.242188 2.347656 25.285156 2.535156 24.335938 C 2.722656 23.382812 2.957031 22.445312 3.238281 21.515625 C 3.519531 20.589844 3.84375 19.679688 4.214844 18.78125 C 4.585938 17.886719 4.996094 17.011719 5.453125 16.15625 C 5.910156 15.300781 6.40625 14.472656 6.941406 13.664062 C 7.480469 12.859375 8.054688 12.082031 8.667969 11.332031 C 9.28125 10.582031 9.929688 9.867188 10.613281 9.179688 C 11.296875 8.496094 12.011719 7.84375 12.757812 7.230469 C 13.503906 6.617188 14.28125 6.039062 15.085938 5.5 C 15.886719 4.960938 16.714844 4.464844 17.570312 4.007812 C 18.421875 3.550781 19.292969 3.136719 20.1875 2.765625 C 21.082031 2.394531 21.988281 2.066406 22.914062 1.785156 C 23.839844 1.503906 24.777344 1.269531 25.722656 1.082031 C 26.671875 0.890625 27.625 0.75 28.589844 0.65625 C 29.550781 0.558594 30.515625 0.511719 31.480469 0.511719 C 32.449219 0.511719 33.414062 0.558594 34.375 0.65625 C 35.335938 0.75 36.289062 0.890625 37.238281 1.082031 C 38.1875 1.269531 39.125 1.503906 40.046875 1.785156 C 40.972656 2.066406 41.882812 2.394531 42.777344 2.765625 C 43.667969 3.136719 44.542969 3.550781 45.394531 4.007812 C 46.246094 4.464844 47.074219 4.960938 47.878906 5.5 C 48.679688 6.039062 49.457031 6.617188 50.203125 7.230469 C 50.953125 7.84375 51.667969 8.496094 52.351562 9.179688 C 53.035156 9.867188 53.683594 10.582031 54.296875 11.332031 C 54.910156 12.082031 55.484375 12.859375 56.019531 13.664062 C 56.558594 14.472656 57.054688 15.300781 57.507812 16.15625 C 57.964844 17.011719 58.378906 17.886719 58.746094 18.78125 C 59.117188 19.679688 59.441406 20.589844 59.722656 21.515625 C 60.003906 22.445312 60.238281 23.382812 60.425781 24.335938 C 60.617188 25.285156 60.757812 26.242188 60.851562 27.207031 C 60.945312 28.171875 60.996094 29.140625 60.996094 30.109375 Z M 60.996094 30.109375 " fill-opacity="1" fill-rule="nonzero"></path></g><path fill="#174152" d="M 51.347656 43.679688 C 51.175781 43.566406 50.988281 43.484375 50.785156 43.433594 C 49.621094 43.335938 48.503906 43.046875 47.4375 42.566406 C 47.15625 42.421875 46.933594 42.21875 46.773438 41.949219 C 46.609375 41.679688 46.53125 41.386719 46.535156 41.070312 L 46.535156 24.046875 C 46.535156 20.878906 45.652344 18.503906 43.890625 16.921875 C 42.128906 15.339844 39.703125 14.550781 36.617188 14.550781 C 34.402344 14.570312 32.363281 15.175781 30.5 16.375 C 28.449219 17.660156 26.660156 19.242188 25.132812 21.121094 C 25.113281 19.953125 25.1875 18.789062 25.359375 17.632812 C 25.5 16.957031 25.585938 16.273438 25.613281 15.582031 C 25.613281 14.882812 25.207031 14.539062 24.398438 14.539062 C 23.609375 14.589844 22.832031 14.707031 22.058594 14.882812 C 20.902344 15.121094 19.695312 15.304688 18.421875 15.445312 C 17.863281 15.492188 17.265625 15.542969 16.601562 15.582031 C 15.941406 15.625 15.304688 15.667969 14.699219 15.710938 L 12.84375 15.785156 C 12.269531 15.785156 11.824219 15.820312 11.523438 15.820312 C 11.421875 16.011719 11.371094 16.214844 11.371094 16.429688 L 11.371094 16.925781 C 11.355469 17.214844 11.445312 17.46875 11.636719 17.6875 C 11.828125 17.902344 12.066406 18.023438 12.355469 18.046875 C 14.121094 18.1875 15.28125 18.628906 15.832031 19.371094 C 16.460938 20.351562 16.738281 21.421875 16.664062 22.582031 L 16.664062 40.996094 C 16.679688 41.320312 16.605469 41.621094 16.4375 41.902344 C 16.273438 42.179688 16.046875 42.390625 15.753906 42.535156 C 14.691406 42.992188 13.582031 43.292969 12.433594 43.441406 C 12.230469 43.488281 12.039062 43.570312 11.863281 43.683594 C 11.65625 43.855469 11.566406 44.078125 11.601562 44.347656 C 11.601562 44.59375 11.613281 44.835938 11.636719 45.082031 C 11.660156 45.289062 11.695312 45.492188 11.753906 45.691406 C 13.011719 45.597656 14.308594 45.515625 15.644531 45.445312 C 16.414062 45.410156 17.300781 45.378906 18.289062 45.363281 L 18.289062 44.25 L 18.332031 43.773438 L 18.433594 43.300781 L 18.554688 42.925781 L 18.726562 42.59375 L 19.070312 42.175781 L 19.390625 41.867188 L 19.792969 41.539062 L 20.605469 41.019531 L 21.234375 40.636719 L 21.976562 40.273438 L 22.789062 39.925781 L 23.871094 39.507812 L 24.871094 39.148438 L 25.613281 38.855469 L 26.527344 38.515625 L 27.132812 38.261719 L 27.59375 37.945312 L 27.917969 37.542969 L 28.085938 37.171875 L 28.195312 36.730469 L 28.195312 36.1875 L 28.128906 35.648438 L 27.855469 35.226562 L 27.613281 34.800781 L 27.308594 34.382812 L 27.164062 33.949219 L 27.03125 33.5625 L 26.953125 33.152344 L 26.921875 32.8125 L 26.921875 32.503906 L 26.6875 32.503906 L 26.527344 32.46875 L 26.382812 32.359375 L 26.261719 32.179688 L 26.183594 31.871094 L 26.183594 31.554688 L 26.117188 31.328125 L 26.078125 31.03125 L 25.976562 30.855469 L 25.84375 30.648438 L 25.746094 30.417969 L 25.679688 30.207031 L 25.679688 29.863281 L 25.757812 29.535156 L 25.957031 29.402344 L 26.144531 29.347656 L 26.089844 29.125 L 25.984375 28.78125 L 25.859375 28.34375 L 25.800781 27.792969 L 25.800781 27.152344 L 25.832031 26.328125 L 25.898438 25.828125 L 26 25.382812 L 26.132812 24.945312 L 26.320312 24.539062 L 26.722656 24.015625 L 27 23.652344 L 27.371094 23.292969 L 27.824219 22.984375 L 28.285156 22.726562 L 28.621094 22.539062 L 29.25 22.320312 L 30.160156 22.1875 L 30.855469 22.144531 L 31.53125 22.144531 L 32.039062 22.242188 L 32.5 22.300781 L 32.894531 22.460938 L 33.148438 22.539062 L 33.609375 22.757812 L 33.953125 22.957031 L 34.367188 23.195312 L 34.695312 23.492188 L 35.015625 23.785156 L 35.28125 24.070312 L 35.519531 24.492188 L 35.597656 24.835938 L 35.863281 24.886719 L 36.121094 24.957031 L 36.433594 25.164062 L 36.660156 25.402344 L 36.816406 25.652344 L 36.992188 25.992188 L 37.070312 26.386719 L 37.113281 26.726562 L 37.148438 27.136719 L 37.054688 27.890625 L 37.003906 28.265625 L 36.945312 28.605469 L 36.847656 28.984375 L 36.660156 29.34375 L 37.035156 29.34375 L 37.230469 29.546875 L 37.320312 29.769531 L 37.320312 30.066406 L 37.289062 30.375 L 37.222656 30.644531 L 37.035156 30.984375 L 36.925781 31.21875 L 36.925781 31.945312 L 36.878906 32.175781 L 36.71875 32.363281 L 36.578125 32.472656 L 36.34375 32.539062 L 36.136719 32.460938 L 36.136719 33.070312 L 36.078125 33.425781 L 35.917969 33.828125 L 35.839844 34.097656 L 35.523438 34.59375 L 35.335938 34.941406 L 35.132812 35.25 L 34.925781 35.550781 L 34.796875 35.847656 L 34.738281 36.242188 L 34.785156 36.660156 L 34.863281 37.070312 L 35.003906 37.429688 L 35.226562 37.882812 L 35.699219 38.195312 L 36.308594 38.511719 L 37.253906 38.828125 L 38.046875 39.140625 L 38.992188 39.457031 L 40.097656 39.933594 L 41.207031 40.414062 L 42.550781 41.144531 L 42.738281 41.265625 L 43.042969 41.433594 L 43.890625 42.152344 L 44.207031 42.625 L 44.363281 42.941406 L 44.523438 43.421875 L 44.679688 44.210938 L 44.679688 45.335938 C 45.765625 45.335938 46.71875 45.386719 47.542969 45.429688 C 48.851562 45.5 50.160156 45.582031 51.46875 45.671875 C 51.519531 45.472656 51.558594 45.269531 51.585938 45.0625 C 51.609375 44.820312 51.625 44.574219 51.621094 44.328125 C 51.648438 44.0625 51.554688 43.84375 51.347656 43.679688 Z M 51.347656 43.679688 " fill-opacity="1" fill-rule="nonzero"></path><path fill="#ffffff" d="M 96.347656 36.199219 L 96.347656 19.035156 C 96.375 18.738281 96.324219 18.457031 96.191406 18.1875 C 96.0625 17.917969 95.875 17.699219 95.625 17.535156 C 94.8125 17.148438 93.960938 16.925781 93.066406 16.859375 C 92.863281 16.808594 92.703125 16.695312 92.585938 16.519531 C 92.46875 16.34375 92.425781 16.152344 92.460938 15.941406 L 92.460938 15.554688 C 92.460938 15.386719 92.492188 15.226562 92.558594 15.074219 C 93.355469 15.171875 94.144531 15.230469 94.914062 15.261719 C 95.683594 15.292969 96.589844 15.308594 97.621094 15.308594 C 98.648438 15.308594 99.527344 15.308594 100.269531 15.261719 C 101.007812 15.214844 101.746094 15.171875 102.488281 15.074219 C 102.488281 15.230469 102.542969 15.394531 102.558594 15.554688 C 102.578125 15.710938 102.558594 15.84375 102.558594 15.941406 C 102.558594 16.488281 102.367188 16.792969 101.953125 16.859375 C 101.191406 16.925781 100.476562 17.148438 99.8125 17.535156 C 99.378906 17.902344 99.1875 18.371094 99.238281 18.941406 L 99.238281 47.222656 C 99.023438 47.261719 98.808594 47.289062 98.589844 47.296875 L 97.984375 47.296875 C 97.730469 47.289062 97.492188 47.230469 97.261719 47.125 C 96.933594 46.957031 96.660156 46.722656 96.441406 46.417969 L 77.449219 22.269531 L 77.449219 43.160156 C 77.441406 43.429688 77.46875 43.695312 77.519531 43.957031 C 77.578125 44.183594 77.707031 44.359375 77.902344 44.488281 C 78.1875 44.667969 78.492188 44.796875 78.820312 44.875 C 79.226562 44.992188 79.757812 45.113281 80.4375 45.242188 C 80.59375 45.269531 80.730469 45.339844 80.84375 45.453125 C 80.988281 45.667969 81.042969 45.902344 81.011719 46.160156 C 81.007812 46.433594 80.976562 46.707031 80.917969 46.980469 C 80.117188 46.914062 79.359375 46.859375 78.648438 46.808594 C 77.941406 46.761719 77.128906 46.734375 76.222656 46.734375 C 75.320312 46.734375 74.40625 46.734375 73.550781 46.808594 C 72.695312 46.882812 71.914062 46.914062 71.210938 46.980469 C 71.140625 46.839844 71.109375 46.695312 71.113281 46.542969 L 71.113281 46.160156 C 71.089844 45.910156 71.144531 45.683594 71.28125 45.476562 C 71.390625 45.351562 71.527344 45.269531 71.6875 45.242188 C 72.511719 45.160156 73.285156 44.917969 74.003906 44.511719 C 74.449219 44.171875 74.652344 43.71875 74.609375 43.160156 L 74.609375 18.695312 C 74.644531 18.214844 74.476562 17.820312 74.109375 17.511719 C 73.394531 17.117188 72.628906 16.898438 71.816406 16.859375 C 71.433594 16.761719 71.210938 16.460938 71.210938 15.941406 L 71.210938 15.710938 C 71.210938 15.621094 71.226562 15.53125 71.257812 15.445312 L 71.308594 15.0625 L 72.605469 15.132812 C 73.023438 15.132812 73.441406 15.171875 73.859375 15.199219 C 74.566406 15.238281 75.28125 15.261719 76.003906 15.273438 C 76.726562 15.273438 77.316406 15.273438 77.765625 15.273438 C 78.375 15.25 78.980469 15.289062 79.582031 15.394531 C 79.878906 15.484375 80.136719 15.636719 80.351562 15.855469 Z M 96.347656 36.199219 " fill-opacity="1" fill-rule="nonzero"></path><path fill="#ffffff" d="M 123.300781 42.292969 C 123.519531 42.09375 123.777344 41.980469 124.070312 41.953125 C 124.277344 41.96875 124.460938 42.039062 124.621094 42.171875 C 124.902344 42.402344 125.117188 42.683594 125.269531 43.015625 C 124.09375 44.449219 122.652344 45.539062 120.953125 46.28125 C 119.105469 47.019531 117.183594 47.367188 115.195312 47.320312 C 113.933594 47.316406 112.703125 47.113281 111.507812 46.710938 C 110.292969 46.308594 109.207031 45.679688 108.253906 44.828125 C 107.246094 43.921875 106.464844 42.847656 105.914062 41.609375 C 105.28125 40.136719 104.988281 38.59375 105.035156 36.988281 C 105.007812 35.308594 105.355469 33.703125 106.070312 32.179688 C 106.722656 30.800781 107.601562 29.585938 108.703125 28.535156 C 109.71875 27.558594 110.875 26.796875 112.167969 26.242188 C 113.328125 25.722656 114.539062 25.457031 115.808594 25.4375 C 118.921875 25.4375 121.277344 26.34375 122.863281 28.152344 C 124.453125 29.957031 125.25 32.421875 125.253906 35.542969 C 125.269531 35.644531 125.242188 35.730469 125.167969 35.800781 C 125.097656 35.871094 125.011719 35.898438 124.914062 35.882812 L 111.125 36.492188 C 111.125 39.007812 111.6875 40.9375 112.8125 42.273438 C 113.929688 43.609375 115.613281 44.28125 117.855469 44.28125 C 118.859375 44.277344 119.835938 44.117188 120.785156 43.792969 C 121.726562 43.464844 122.5625 42.964844 123.300781 42.292969 Z M 115.074219 27.542969 C 114.46875 27.535156 113.898438 27.671875 113.363281 27.960938 C 112.832031 28.25 112.402344 28.652344 112.078125 29.164062 C 111.328125 30.238281 110.949219 31.941406 110.949219 34.265625 L 118.433594 33.949219 C 118.910156 33.921875 119.148438 33.707031 119.148438 33.34375 C 119.144531 32.6875 119.0625 32.039062 118.910156 31.402344 C 118.753906 30.746094 118.507812 30.125 118.164062 29.542969 C 117.839844 28.988281 117.417969 28.523438 116.898438 28.144531 C 116.355469 27.738281 115.75 27.539062 115.074219 27.542969 Z M 115.074219 27.542969 " fill-opacity="1" fill-rule="nonzero"></path><path fill="#ffffff" d="M 146.585938 42.292969 C 146.804688 42.089844 147.0625 41.976562 147.359375 41.953125 C 147.5625 41.96875 147.746094 42.042969 147.910156 42.171875 C 148.1875 42.402344 148.40625 42.683594 148.558594 43.015625 C 147.378906 44.449219 145.941406 45.539062 144.242188 46.28125 C 142.390625 47.019531 140.472656 47.367188 138.480469 47.320312 C 137.21875 47.316406 135.992188 47.117188 134.796875 46.710938 C 133.582031 46.308594 132.496094 45.679688 131.539062 44.828125 C 130.53125 43.921875 129.753906 42.847656 129.199219 41.609375 C 128.566406 40.136719 128.269531 38.597656 128.308594 36.988281 C 128.285156 35.308594 128.628906 33.703125 129.34375 32.179688 C 129.996094 30.800781 130.871094 29.585938 131.96875 28.535156 C 132.992188 27.558594 134.148438 26.796875 135.445312 26.242188 C 136.601562 25.722656 137.8125 25.457031 139.082031 25.4375 C 142.199219 25.4375 144.550781 26.34375 146.144531 28.152344 C 147.738281 29.957031 148.535156 32.421875 148.535156 35.542969 C 148.550781 35.644531 148.519531 35.730469 148.449219 35.800781 C 148.378906 35.871094 148.292969 35.898438 148.195312 35.882812 L 134.40625 36.492188 C 134.40625 39.007812 134.96875 40.9375 136.085938 42.273438 C 137.207031 43.609375 138.894531 44.28125 141.132812 44.28125 C 142.136719 44.277344 143.113281 44.117188 144.066406 43.792969 C 145.007812 43.460938 145.847656 42.960938 146.585938 42.292969 Z M 138.378906 27.542969 C 137.765625 27.527344 137.191406 27.664062 136.648438 27.953125 C 136.109375 28.242188 135.675781 28.644531 135.347656 29.164062 C 134.59375 30.238281 134.21875 31.941406 134.21875 34.265625 L 141.714844 33.949219 C 142.191406 33.921875 142.433594 33.707031 142.433594 33.34375 C 142.429688 32.6875 142.351562 32.039062 142.191406 31.402344 C 142.039062 30.746094 141.792969 30.125 141.453125 29.542969 C 141.125 28.988281 140.699219 28.523438 140.179688 28.144531 C 139.644531 27.746094 139.042969 27.542969 138.378906 27.542969 Z M 138.378906 27.542969 " fill-opacity="1" fill-rule="nonzero"></path><path fill="#ffffff" d="M 173.046875 42.242188 C 173.042969 42.574219 173.058594 42.90625 173.09375 43.234375 C 173.121094 43.496094 173.21875 43.730469 173.382812 43.933594 C 173.582031 44.152344 173.824219 44.308594 174.105469 44.394531 C 174.53125 44.527344 174.964844 44.617188 175.410156 44.65625 C 175.859375 44.722656 176.082031 44.929688 176.082031 45.265625 L 176.082031 45.746094 C 176.089844 45.886719 176.058594 46.015625 175.984375 46.132812 C 175.566406 46.132812 174.917969 46.132812 174.035156 46.207031 C 173.148438 46.28125 172.402344 46.328125 171.796875 46.417969 C 171.085938 46.515625 170.390625 46.636719 169.699219 46.785156 C 169.230469 46.898438 168.753906 46.972656 168.273438 47.003906 C 167.984375 47.003906 167.800781 46.949219 167.722656 46.832031 C 167.625 46.660156 167.582031 46.476562 167.601562 46.28125 L 167.601562 43.398438 C 167.199219 43.957031 166.765625 44.492188 166.296875 44.996094 C 165.847656 45.472656 165.339844 45.875 164.78125 46.214844 C 164.179688 46.5625 163.542969 46.828125 162.871094 47.007812 C 160.863281 47.515625 158.894531 47.386719 156.964844 46.621094 C 155.878906 46.164062 154.9375 45.496094 154.148438 44.613281 C 153.300781 43.65625 152.671875 42.570312 152.269531 41.355469 C 151.800781 39.9375 151.574219 38.484375 151.59375 36.988281 C 151.570312 35.308594 151.917969 33.703125 152.632812 32.179688 C 153.28125 30.800781 154.15625 29.585938 155.257812 28.535156 C 156.277344 27.558594 157.433594 26.796875 158.730469 26.242188 C 159.886719 25.722656 161.101562 25.453125 162.367188 25.4375 C 163.238281 25.433594 164.097656 25.523438 164.945312 25.707031 C 165.734375 25.882812 166.625 26.132812 167.625 26.453125 L 167.625 18.40625 C 167.679688 17.621094 167.519531 16.890625 167.140625 16.203125 C 166.820312 15.742188 166.066406 15.445312 164.878906 15.308594 C 164.703125 15.257812 164.542969 15.179688 164.394531 15.074219 C 164.234375 14.929688 164.171875 14.75 164.199219 14.539062 C 164.207031 14.277344 164.238281 14.019531 164.296875 13.765625 C 164.519531 13.765625 164.8125 13.765625 165.164062 13.765625 L 166.320312 13.71875 C 166.726562 13.71875 167.144531 13.691406 167.578125 13.644531 C 167.996094 13.644531 168.375 13.582031 168.734375 13.546875 C 169.566406 13.449219 170.347656 13.320312 171.070312 13.164062 C 171.550781 13.039062 172.042969 12.957031 172.542969 12.921875 C 173.085938 12.921875 173.359375 13.164062 173.359375 13.644531 C 173.355469 14.347656 173.304688 15.050781 173.214844 15.746094 C 173.113281 16.65625 173.0625 17.566406 173.070312 18.476562 Z M 167.589844 29.769531 C 166.941406 29.066406 166.183594 28.523438 165.3125 28.136719 C 164.441406 27.75 163.527344 27.550781 162.574219 27.542969 C 162.191406 27.527344 161.816406 27.566406 161.445312 27.660156 C 161.074219 27.753906 160.722656 27.898438 160.390625 28.09375 C 160.0625 28.289062 159.765625 28.527344 159.507812 28.804688 C 159.246094 29.085938 159.03125 29.398438 158.859375 29.742188 C 158.050781 31.210938 157.644531 33.214844 157.644531 35.761719 C 157.640625 36.925781 157.742188 38.078125 157.953125 39.222656 C 158.132812 40.203125 158.445312 41.136719 158.894531 42.023438 C 159.277344 42.78125 159.820312 43.398438 160.511719 43.882812 C 161.238281 44.359375 162.03125 44.585938 162.894531 44.558594 C 163.523438 44.550781 164.097656 44.367188 164.613281 44.007812 C 165.191406 43.617188 165.691406 43.140625 166.101562 42.578125 C 166.554688 41.96875 166.910156 41.308594 167.164062 40.59375 C 167.433594 39.878906 167.574219 39.136719 167.578125 38.371094 Z M 167.589844 29.769531 " fill-opacity="1" fill-rule="nonzero"></path><path fill="#ffffff" d="M 197.1875 42.292969 C 197.40625 42.09375 197.664062 41.980469 197.957031 41.953125 C 198.164062 41.96875 198.347656 42.039062 198.507812 42.171875 C 198.789062 42.402344 199.003906 42.683594 199.15625 43.015625 C 197.980469 44.449219 196.542969 45.539062 194.847656 46.28125 C 193 47.019531 191.085938 47.367188 189.097656 47.324219 C 187.835938 47.324219 186.609375 47.121094 185.414062 46.71875 C 184.199219 46.316406 183.113281 45.6875 182.15625 44.832031 C 181.152344 43.925781 180.375 42.855469 179.824219 41.617188 C 179.183594 40.140625 178.882812 38.597656 178.925781 36.988281 C 178.902344 35.308594 179.246094 33.703125 179.960938 32.179688 C 180.613281 30.800781 181.492188 29.585938 182.59375 28.535156 C 183.613281 27.5625 184.769531 26.796875 186.0625 26.242188 C 187.21875 25.722656 188.433594 25.457031 189.699219 25.4375 C 192.816406 25.4375 195.167969 26.34375 196.761719 28.152344 C 198.355469 29.957031 199.148438 32.421875 199.144531 35.542969 C 199.160156 35.640625 199.132812 35.726562 199.0625 35.796875 C 198.992188 35.867188 198.910156 35.898438 198.8125 35.882812 L 185.019531 36.492188 C 185.019531 39.007812 185.582031 40.9375 186.703125 42.273438 C 187.828125 43.609375 189.503906 44.261719 191.730469 44.226562 C 192.734375 44.222656 193.710938 44.0625 194.660156 43.738281 C 195.597656 43.425781 196.441406 42.945312 197.1875 42.292969 Z M 188.976562 27.542969 C 188.371094 27.535156 187.800781 27.671875 187.269531 27.960938 C 186.734375 28.25 186.308594 28.652344 185.984375 29.164062 C 185.230469 30.242188 184.859375 31.945312 184.859375 34.265625 L 192.335938 33.949219 C 192.816406 33.921875 193.050781 33.707031 193.050781 33.34375 C 193.046875 32.6875 192.96875 32.039062 192.816406 31.402344 C 192.664062 30.742188 192.417969 30.125 192.070312 29.542969 C 191.742188 28.988281 191.320312 28.523438 190.800781 28.144531 C 190.261719 27.738281 189.652344 27.539062 188.976562 27.542969 Z M 188.976562 27.542969 " fill-opacity="1" fill-rule="nonzero"></path><path fill="#ffffff" d="M 223.667969 42.242188 C 223.664062 42.574219 223.679688 42.90625 223.71875 43.234375 C 223.742188 43.496094 223.835938 43.730469 224 43.933594 C 224.203125 44.152344 224.445312 44.308594 224.730469 44.394531 C 225.15625 44.527344 225.589844 44.617188 226.03125 44.65625 C 226.480469 44.722656 226.707031 44.929688 226.707031 45.265625 L 226.707031 45.746094 C 226.710938 45.882812 226.679688 46.011719 226.609375 46.132812 C 226.191406 46.132812 225.542969 46.132812 224.65625 46.207031 C 223.773438 46.28125 223.027344 46.328125 222.414062 46.417969 C 221.703125 46.515625 221.007812 46.636719 220.316406 46.785156 C 219.847656 46.898438 219.375 46.972656 218.898438 47.003906 C 218.605469 47.003906 218.417969 46.949219 218.339844 46.832031 C 218.242188 46.660156 218.203125 46.476562 218.21875 46.28125 L 218.21875 43.398438 C 217.820312 43.957031 217.386719 44.492188 216.921875 44.996094 C 216.46875 45.472656 215.960938 45.875 215.398438 46.214844 C 214.800781 46.5625 214.164062 46.828125 213.496094 47.007812 C 212.699219 47.214844 211.890625 47.3125 211.070312 47.300781 C 209.859375 47.308594 208.695312 47.082031 207.578125 46.621094 C 206.488281 46.164062 205.546875 45.496094 204.757812 44.613281 C 203.910156 43.65625 203.28125 42.570312 202.875 41.355469 C 202.410156 39.9375 202.1875 38.480469 202.210938 36.988281 C 202.183594 35.300781 202.53125 33.691406 203.25 32.164062 C 203.902344 30.785156 204.777344 29.566406 205.878906 28.515625 C 206.898438 27.539062 208.054688 26.777344 209.347656 26.222656 C 210.496094 25.714844 211.695312 25.457031 212.949219 25.4375 C 213.820312 25.433594 214.679688 25.523438 215.53125 25.707031 C 216.339844 25.878906 217.230469 26.128906 218.207031 26.453125 L 218.207031 18.40625 C 218.265625 17.625 218.105469 16.890625 217.726562 16.203125 C 217.40625 15.742188 216.648438 15.445312 215.460938 15.308594 C 215.285156 15.257812 215.125 15.179688 214.976562 15.074219 C 214.816406 14.929688 214.753906 14.75 214.785156 14.539062 C 214.792969 14.277344 214.824219 14.019531 214.882812 13.765625 C 215.109375 13.765625 215.394531 13.765625 215.75 13.765625 L 216.910156 13.71875 L 218.15625 13.644531 C 218.574219 13.644531 218.964844 13.582031 219.316406 13.546875 C 220.152344 13.449219 220.933594 13.320312 221.65625 13.164062 C 222.136719 13.039062 222.625 12.957031 223.121094 12.921875 C 223.667969 12.921875 223.949219 13.164062 223.949219 13.644531 C 223.941406 14.347656 223.894531 15.050781 223.800781 15.746094 C 223.699219 16.65625 223.648438 17.566406 223.65625 18.476562 Z M 218.210938 29.769531 C 217.566406 29.066406 216.804688 28.523438 215.933594 28.136719 C 215.0625 27.75 214.152344 27.550781 213.199219 27.542969 C 212.816406 27.527344 212.441406 27.566406 212.070312 27.660156 C 211.699219 27.753906 211.347656 27.898438 211.019531 28.09375 C 210.691406 28.289062 210.394531 28.527344 210.132812 28.808594 C 209.875 29.085938 209.660156 29.398438 209.488281 29.742188 C 208.679688 31.210938 208.273438 33.214844 208.273438 35.761719 C 208.269531 36.925781 208.375 38.078125 208.589844 39.222656 C 208.765625 40.203125 209.078125 41.136719 209.53125 42.023438 C 209.910156 42.777344 210.445312 43.398438 211.132812 43.882812 C 211.867188 44.367188 212.675781 44.59375 213.554688 44.558594 C 214.183594 44.546875 214.75 44.363281 215.265625 44.007812 C 215.847656 43.617188 216.347656 43.140625 216.761719 42.578125 C 217.203125 41.96875 217.550781 41.304688 217.800781 40.59375 C 218.070312 39.878906 218.203125 39.136719 218.207031 38.371094 Z M 218.210938 29.769531 " fill-opacity="1" fill-rule="nonzero"></path></svg>